<svg xmlns="http://www.w3.org/2000/svg" width="400" height="400" fill-rule="evenodd"><path d="M183.6 70c0 .22-.619.4-1.376.4s-1.488.18-1.624.4-.561.4-.945.4c-.897 0-4.642 1.861-5.271 2.619-.265.32-.681.581-.924.581-.589 0-6.26 5.653-6.26 6.241 0 .254-.261.678-.581.943-.758.629-2.619 4.374-2.619 5.271 0 .384-.18.809-.4.945s-.4.867-.4 1.624-.18 1.376-.4 1.376c-.265 0-.4 29.133-.4 86.6l-.298 86.6c-.164 0-3.449-1.55-7.3-3.444l-12.002-5.894c-2.75-1.348-5.06-2.588-5.133-2.756s-.479-.306-.9-.306-.767-.18-.767-.4-.36-.4-.8-.4-.8-.18-.8-.4-.36-.4-.8-.4-.8-.18-.8-.4-.36-.4-.8-.4-.8-.18-.8-.4-.345-.4-.767-.4-.826-.14-.9-.312-3.373-1.902-7.333-3.844l-12.2-5.982c-2.75-1.348-5.06-2.588-5.133-2.756s-.479-.306-.9-.306-.767-.18-.767-.4-.245-.4-.545-.4-1.944-.72-3.655-1.6-3.446-1.6-3.855-1.6-.745-.18-.745-.4-.72-.4-1.6-.4-1.6-.18-1.6-.4c0-.24-1.592-.4-3.976-.4-2.22 0-4.086.177-4.224.4s-.856.4-1.6.4-1.464.18-1.6.4-.58.4-.986.4c-.938 0-4.011 1.581-4.861 2.5-.356.385-.854.7-1.106.7-.662 0-6.447 5.879-6.447 6.551 0 .31-.247.658-.548.774-.629.241-2.652 4.112-2.652 5.074 0 .352-.225.866-.5 1.141-.706.706-.706 12.614 0 13.32.275.275.5.789.5 1.141 0 .853 1.885 4.606 2.619 5.215.32.265.581.689.581.943 0 .588 5.671 6.241 6.26 6.241.243 0 .656.258.918.574s2.579 1.614 5.149 2.887 4.733 2.454 4.806 2.626.479.313.9.313.767.18.767.4.36.4.8.4.8.18.8.4.36.4.8.4.8.18.8.4.36.4.8.4.8.18.8.4.345.4.767.4.826.136.9.302 1.303.866 2.733 1.557c10.16 4.904 21.822 10.769 21.933 11.029.074.172.479.312.9.312s.767.18.767.4.36.4.8.4.8.18.8.4.36.4.8.4.8.18.8.4.36.4.8.4.8.18.8.4.345.4.767.4.826.137.9.304 1.663 1.047 3.533 1.956l22.733 11.428c.074.172.479.312.9.312s.767.18.767.4.36.4.8.4.8.18.8.4.36.4.8.4.8.18.8.4.36.4.8.4.8.18.8.4.345.4.767.4.826.136.9.302 1.303.868 2.733 1.559l7.4 3.568c2.64 1.271 5.106 2.569 5.481 2.886 1.05.886 4.371 2.485 5.163 2.485.39 0 .82.18.956.4s.867.4 1.624.4 1.376.18 1.376.4c0 .238 1.525.4 3.776.4 2.087 0 3.887-.179 4.024-.4s.856-.4 1.6-.4 1.464-.18 1.6-.4.687-.4 1.224-.4.976-.18.976-.4.36-.4.8-.4.8-.18.8-.4.32-.4.712-.4.971-.36 1.288-.8.857-.8 1.199-.8c.697 0 5.784-4.969 6.601-6.447 1.772-3.21 2.6-4.995 2.6-5.608 0-.384.18-.809.4-.945s.4-.856.4-1.6.18-1.464.4-1.6c.265-.164.4-37.063.4-109.4L212 90.6c-.22-.136-.4-.856-.4-1.6s-.18-1.464-.4-1.6-.4-.561-.4-.945c0-.613-.828-2.398-2.6-5.608-.817-1.478-5.904-6.447-6.601-6.447-.342 0-.882-.36-1.199-.8s-.897-.8-1.288-.8-.712-.18-.712-.4-.36-.4-.8-.4-.8-.18-.8-.4-.439-.4-.976-.4-1.088-.18-1.224-.4-.856-.4-1.6-.4-1.464-.18-1.6-.4-1.937-.4-4.024-.4c-2.251 0-3.776.162-3.776.4" fill="#fcfcfc"/><path d="M183.4 69.6c-.136.22-.867.4-1.624.4s-1.376.18-1.376.4-.54.4-1.2.4-1.2.18-1.2.4-.36.4-.8.4-.8.18-.8.4-.32.4-.712.4-.971.36-1.288.8-.805.8-1.084.8c-.532 0-6.205 5.736-6.467 6.538-.083.254-.461.822-.84 1.262-.817.947-1.383 2.355-.804 1.997.217-.134.395-.476.395-.759s.36-.84.8-1.238.8-.926.8-1.172c0-.579 5.679-6.228 6.26-6.228.243 0 .659-.261.924-.581.629-.758 4.374-2.619 5.271-2.619.384 0 .809-.18.945-.4s.867-.4 1.624-.4 1.376-.18 1.376-.4c0-.238 1.525-.4 3.776-.4 2.087 0 3.887.179 4.024.4s.856.4 1.6.4 1.464.18 1.6.4.687.4 1.224.4.976.18.976.4.36.4.8.4.8.18.8.4.32.4.712.4.971.36 1.288.8.857.8 1.199.8c.697 0 5.784 4.969 6.601 6.447 1.772 3.21 2.6 4.995 2.6 5.608 0 .384.18.809.4.945s.4.856.4 1.6.18 1.464.4 1.6c.265.164.4 37.063.4 109.4l-.4 109.4c-.22.136-.4.856-.4 1.6s-.18 1.464-.4 1.6-.4.561-.4.945c0 .613-.828 2.398-2.6 5.608-.817 1.478-5.904 6.447-6.601 6.447-.342 0-.882.36-1.199.8s-.897.8-1.288.8-.712.18-.712.4-.36.4-.8.4-.8.18-.8.4-.439.4-.976.4-1.088.18-1.224.4-.856.4-1.6.4-1.464.18-1.6.4c-.327.529-7.8.529-7.8 0 0-.22-.619-.4-1.376-.4s-1.488-.18-1.624-.4-.566-.4-.956-.4c-.787 0-4.103-1.593-5.163-2.48-.375-.314-2.661-1.537-5.081-2.719l-4.7-2.299c-.165-.082-.3-.066-.3.037s1.755 1.052 3.9 2.11 3.96 2.066 4.033 2.238.439.313.812.313.938.36 1.255.8.897.8 1.288.8.712.18.712.4.36.4.8.4.8.18.8.4.54.4 1.2.4 1.2.18 1.2.4.619.4 1.376.4 1.488.18 1.624.4 1.93.4 4 .4 3.864-.179 4-.4.856-.4 1.6-.4 1.464-.18 1.6-.4.561-.4.945-.4c.897 0 4.642-1.861 5.271-2.619.682-.822 1.042-.751 4.161.82 1.527.77 3.092 1.399 3.476 1.399s.811.18.947.4.867.4 1.624.4 1.376.18 1.376.4c0 .24 1.6.4 4 .4s4-.16 4-.4c0-.22.619-.4 1.376-.4s1.488-.18 1.624-.4.561-.4.945-.4c.897 0 4.642-1.861 5.271-2.619.265-.32.689-.581.943-.581.588 0 6.241-5.671 6.241-6.26 0-.243.261-.659.581-.924.758-.629 2.619-4.374 2.619-5.271 0-.384.18-.809.4-.945s.4-.867.4-1.624.18-1.376.4-1.376c.265 0 .4-29.133.4-86.6l.298-86.6c.164 0 3.089 1.369 6.5 3.042l8.802 4.298c1.43.691 2.66 1.392 2.733 1.558s.479.302.9.302.767.18.767.4.36.4.8.4.8.18.8.4.36.4.8.4.8.18.8.4.345.4.767.4.826.14.9.312c.113.264 11.816 6.146 24.333 12.228 1.87.909 3.46 1.789 3.533 1.956s.479.304.9.304.767.18.767.4.36.4.8.4.8.18.8.4.36.4.8.4.8.18.8.4.345.4.767.4.826.137.9.304c.208.473 6.851 3.703 7.609 3.699.372-.002.788.177.924.397s.856.4 1.6.4 1.464.18 1.6.4 1.996.4 4.2.4 4.062-.177 4.2-.4.856-.4 1.6-.4 1.464-.18 1.6-.4.561-.4.945-.4c.897 0 4.642-1.861 5.271-2.619.265-.32.689-.581.943-.581.588 0 6.241-5.671 6.241-6.26 0-.243.266-.663.592-.933 1.643-1.364 1.808-2.554 1.808-13.007s-.165-11.643-1.808-13.007c-.326-.27-.592-.698-.592-.952 0-.578-5.556-6.128-6.846-6.839-.525-.289-2.664-1.392-4.754-2.451s-3.86-2.066-3.933-2.238-.479-.313-.9-.313-.767-.18-.767-.4-.36-.4-.8-.4-.8-.18-.8-.4-.36-.4-.8-.4-.8-.18-.8-.4-.36-.4-.8-.4-.8-.18-.8-.4-.345-.4-.767-.4-.826-.14-.9-.312c-.119-.279-4.092-2.277-21.133-10.626-2.75-1.348-5.06-2.588-5.133-2.756s-.479-.306-.9-.306-.767-.18-.767-.4-.36-.4-.8-.4-.8-.18-.8-.4-.36-.4-.8-.4-.8-.18-.8-.4-.345-.4-.767-.4-.826-.14-.9-.312c-.119-.279-4.092-2.277-21.133-10.626-2.75-1.348-5.06-2.588-5.133-2.756s-.479-.306-.9-.306-.767-.18-.767-.4-.36-.4-.8-.4-.8-.18-.8-.4-.36-.4-.8-.4-.8-.18-.8-.4-.36-.4-.8-.4-.8-.18-.8-.4-.345-.4-.767-.4-.826-.14-.9-.312c-.165-.386-15.588-8.088-16.196-8.088-.241 0-.656-.261-.921-.581-.629-.758-4.374-2.619-5.271-2.619-.384 0-.809-.18-.945-.4s-.867-.4-1.624-.4-1.376-.18-1.376-.4c0-.24-1.6-.4-4-.4s-4 .16-4 .4c0 .22-.619.4-1.376.4s-1.488.18-1.624.4-.561.4-.945.4c-.802 0-4.739 1.888-5.076 2.435-.353.57-2.028.429-2.563-.216-.629-.758-4.374-2.619-5.271-2.619-.384 0-.809-.18-.945-.4s-.856-.4-1.6-.4-1.464-.18-1.6-.4-1.93-.4-4-.4-3.864.179-4 .4M111 230c-.136.22-.856.4-1.6.4s-1.464.18-1.6.4-.58.4-.986.4c-.761 0-4.033 1.556-4.446 2.114-.29.391-1.231.087-3.695-1.192-1.06-.551-2.014-.914-2.121-.807-.235.235 5.448 3.085 6.152 3.085.273 0 .496.18.496.4s.345.4.767.4.826.138.9.306 2.383 1.408 5.133 2.756l12.2 5.982c3.96 1.942 7.26 3.672 7.333 3.844s.479.312.9.312.767.18.767.4.36.4.8.4.8.18.8.4.36.4.8.4.8.18.8.4.36.4.8.4.8.18.8.4.345.4.767.4.826.138.9.306 2.383 1.408 5.133 2.756l12.002 5.894c3.851 1.894 7.136 3.444 7.3 3.444s.298-3.251.298-7.224-.152-7.129-.338-7.015-4.034-1.629-8.552-3.876l-10.461-5.085c-1.235-.55-2.247-1.135-2.248-1.3s-.361-.3-.801-.3-.8-.18-.8-.4-.36-.4-.8-.4-.8-.18-.8-.4-.36-.4-.8-.4-.8-.18-.8-.4-.345-.4-.767-.4-.826-.138-.9-.306c-.207-.477-10.05-5.299-10.809-5.296-.372.001-.788-.178-.924-.398s-.856-.4-1.6-.4-1.464-.18-1.6-.4-1.996-.4-4.2-.4-4.062.177-4.2.4m-35.237 1.997c-.9.422-1.867 1.046-2.148 1.386s-.72.617-.973.617c-.538 0-6.642 6.045-6.642 6.577 0 .198-.315.715-.7 1.148-.681.767-.676.774.2.235.495-.304.9-.782.9-1.063 0-.634 5.817-6.497 6.447-6.497.252 0 .75-.324 1.106-.72s1.322-1.035 2.147-1.419 1.5-.78 1.5-.88c0-.247.011-.251-1.837.616m-13.896 18.67c-.37.369-.338 8.133.033 8.133.165 0 .3-1.89.3-4.2l-.033-4.2c-.019 0-.154.12-.3.267m3.433 16.764c.385.458.7 1.002.7 1.21 0 .507 6.109 6.559 6.621 6.559.221 0 .662.36.979.8s.897.8 1.288.8.712.18.712.4.36.4.8.4.8.18.8.4.36.4.8.4.8.18.8.4.36.4.8.4.8.18.8.4.345.4.767.4.826.137.9.305 2.113 1.281 4.533 2.474l4.7 2.319c.165.082.3-.041.3-.274s-.36-.424-.8-.424-.8-.18-.8-.4-.36-.4-.8-.4-.8-.18-.8-.4-.36-.4-.8-.4-.8-.18-.8-.4-.36-.4-.8-.4-.8-.18-.8-.4-.345-.4-.767-.4-.826-.141-.9-.313-2.236-1.354-4.806-2.626-4.887-2.572-5.149-2.887-.683-.574-.937-.574c-.58 0-6.241-5.667-6.241-6.247 0-.236-.405-.772-.9-1.191-.899-.761-.899-.761-.2.069m31.9 20.342c0 .081 2.115 1.195 4.7 2.474s4.76 2.468 4.833 2.64.479.313.9.313.767.18.767.4.36.4.8.4.8.18.8.4.36.4.8.4.8.18.8.4.36.4.8.4.8.18.8.4.36.4.8.4.8.18.8.4.405.4.9.4-3.209-2.057-8.232-4.57c-9.359-4.683-10.268-5.113-10.268-4.857m22.487 11.58c4.298 2.159 4.713 2.32 4.713 1.834 0-.213-.36-.387-.8-.387s-.8-.18-.8-.4-.36-.4-.8-.4-.8-.18-.8-.4-.36-.4-.8-.4-.8-.18-.8-.4-.36-.4-.8-.4-.8-.18-.8-.4-.405-.4-.9-.399c-.541.001.492.7 2.587 1.752m11.913 5.586c0 .102 1.755 1.052 3.9 2.11s3.96 2.066 4.033 2.238.479.313.9.313.767.18.767.4.36.4.8.4.8.18.8.4.36.4.8.4.8.18.8.4.36.4.8.4.8.18.8.4.36.4.8.4.8.18.8.4.345.4.767.4.826.137.9.304 1.753 1.1 3.733 2.075l3.9 1.92c.165.081.3-.042.3-.275s-.36-.424-.8-.424-.8-.18-.8-.4-.36-.4-.8-.4-.8-.18-.8-.4-.36-.4-.8-.4-.8-.18-.8-.4-.345-.4-.767-.4-.826-.139-.9-.308-4.273-2.362-9.333-4.873l-9.5-4.715c-.165-.083-.3-.068-.3.035" fill="#34946c"/><path d="M0 200v200h200 200V200 0H200 0v200M191.4 69.6c.136.22.856.4 1.6.4s1.464.18 1.6.4.561.4.945.4c.897 0 4.642 1.861 5.271 2.619.535.645 2.21.786 2.563.216.337-.547 4.274-2.435 5.076-2.435.384 0 .809-.18.945-.4s.867-.4 1.624-.4 1.376-.18 1.376-.4c0-.24 1.6-.4 4-.4s4 .16 4 .4c0 .22.619.4 1.376.4s1.488.18 1.624.4.561.4.945.4c.897 0 4.642 1.861 5.271 2.619.265.32.68.581.921.581.608 0 16.031 7.702 16.196 8.088.074.172.479.312.9.312s.767.18.767.4.36.4.8.4.8.18.8.4.36.4.8.4.8.18.8.4.36.4.8.4.8.18.8.4.345.4.767.4.826.138.9.306 2.383 1.408 5.133 2.756l21.133 10.626c.074.172.479.312.9.312s.767.18.767.4.36.4.8.4.8.18.8.4.36.4.8.4.8.18.8.4.345.4.767.4.826.138.9.306 2.383 1.408 5.133 2.756l21.133 10.626c.074.172.479.312.9.312s.767.18.767.4.36.4.8.4.8.18.8.4.36.4.8.4.8.18.8.4.36.4.8.4.8.18.8.4.345.4.767.4.826.141.9.313 1.843 1.179 3.933 2.238l4.754 2.451c1.29.711 6.846 6.261 6.846 6.839 0 .254.266.682.592.952 1.643 1.364 1.808 2.554 1.808 13.007s-.165 11.643-1.808 13.007c-.326.27-.592.69-.592.933 0 .589-5.653 6.26-6.241 6.26-.254 0-.678.261-.943.581-.629.758-4.374 2.619-5.271 2.619-.384 0-.809.18-.945.4s-.856.4-1.6.4-1.464.18-1.6.4-1.996.4-4.2.4-4.062-.177-4.2-.4-.856-.4-1.6-.4-1.464-.18-1.6-.4-.552-.399-.924-.397c-.758.004-7.401-3.226-7.609-3.699-.074-.167-.479-.304-.9-.304s-.767-.18-.767-.4-.36-.4-.8-.4-.8-.18-.8-.4-.36-.4-.8-.4-.8-.18-.8-.4-.345-.4-.767-.4-.826-.137-.9-.304-1.663-1.047-3.533-1.956l-24.333-12.228c-.074-.172-.479-.312-.9-.312s-.767-.18-.767-.4-.36-.4-.8-.4-.8-.18-.8-.4-.36-.4-.8-.4-.8-.18-.8-.4-.345-.4-.767-.4-.826-.136-.9-.302-1.303-.867-2.733-1.558l-8.802-4.298c-3.411-1.673-6.336-3.042-6.5-3.042s-.298 38.97-.298 86.6l-.4 86.6c-.22 0-.4.619-.4 1.376s-.18 1.488-.4 1.624-.4.561-.4.945c0 .897-1.861 4.642-2.619 5.271-.32.265-.581.681-.581.924 0 .589-5.653 6.26-6.241 6.26-.254 0-.678.261-.943.581-.629.758-4.374 2.619-5.271 2.619-.384 0-.809.18-.945.4s-.867.4-1.624.4-1.376.18-1.376.4c0 .24-1.6.4-4 .4s-4-.16-4-.4c0-.22-.619-.4-1.376-.4s-1.488-.18-1.624-.4-.562-.4-.947-.4-1.949-.629-3.476-1.399c-3.119-1.571-3.479-1.642-4.161-.82-.629.758-4.374 2.619-5.271 2.619-.384 0-.809.18-.945.4s-.856.4-1.6.4-1.464.18-1.6.4-1.93.4-4 .4-3.864-.179-4-.4-.867-.4-1.624-.4-1.376-.18-1.376-.4-.54-.4-1.2-.4-1.2-.18-1.2-.4-.36-.4-.8-.4-.8-.18-.8-.4-.32-.4-.712-.4-.971-.36-1.288-.8-.882-.8-1.255-.8-.738-.142-.812-.316c-.118-.28-6.788-3.634-18.933-9.519-2.2-1.067-4.06-2.08-4.133-2.252s-.479-.313-.9-.313-.767-.18-.767-.4-.36-.4-.8-.4-.8-.18-.8-.4-.36-.4-.8-.4-.8-.18-.8-.4-.36-.4-.8-.4-.8-.18-.8-.4-.36-.4-.8-.4-.8-.18-.8-.4-.345-.4-.767-.4-.826-.14-.9-.312c-.115-.27-7.046-3.757-19.533-9.828-1.87-.909-3.46-1.789-3.533-1.956s-.479-.304-.9-.304-.767-.18-.767-.4-.36-.4-.8-.4-.8-.18-.8-.4-.36-.4-.8-.4-.8-.18-.8-.4-.36-.4-.8-.4-.8-.18-.8-.4-.36-.4-.8-.4-.8-.18-.8-.4-.345-.4-.767-.4-.826-.14-.9-.312c-.117-.275-5.555-3.01-20.333-10.227-2.31-1.128-4.26-2.188-4.333-2.356s-.479-.305-.9-.305-.767-.18-.767-.4-.36-.4-.8-.4-.8-.18-.8-.4-.36-.4-.8-.4-.8-.18-.8-.4-.36-.4-.8-.4-.8-.18-.8-.4-.32-.4-.712-.4-.971-.36-1.288-.8-.766-.8-.998-.8c-.539 0-6.098-5.582-6.818-6.846-.299-.525-.865-1.629-1.258-2.454s-.852-1.5-1.02-1.5-.306-.54-.306-1.2-.18-1.2-.4-1.2-.4-.72-.4-1.6-.18-1.6-.4-1.6c-.531 0-.531-7.872 0-8.2.22-.136.4-.856.4-1.6s.18-1.464.4-1.6.4-.561.4-.945c0-.613.827-2.396 2.601-5.609.713-1.291 6.263-6.846 6.84-6.846.254 0 .693-.279.975-.62.651-.784 3.685-2.18 4.738-2.18.44 0 .91-.18 1.046-.4s.856-.4 1.6-.4 1.464-.18 1.6-.4c.14-.227 2.137-.4 4.624-.4 2.651 0 4.376.158 4.376.4 0 .22.72.4 1.6.4s1.6.18 1.6.4.495.402 1.1.405 1.836.426 2.736.94c1.858 1.063 3.634 1.598 3.831 1.154.218-.49 3.549-2.099 4.347-2.099.406 0 .85-.18.986-.4s.856-.4 1.6-.4 1.464-.18 1.6-.4 1.996-.4 4.2-.4 4.062.177 4.2.4.856.4 1.6.4 1.464.18 1.6.4.552.399.924.398c.759-.003 10.602 4.819 10.809 5.296.074.168.479.306.9.306s.767.18.767.4.36.4.8.4.8.18.8.4.36.4.8.4.8.18.8.4.36.4.8.4.801.135.801.3 1.013.75 2.248 1.3 5.943 2.838 10.461 5.085 8.367 3.991 8.552 3.876.338-36.018.338-79.785l.4-79.576c.22 0 .4-.72.4-1.6s.18-1.6.4-1.6.4-.54.4-1.2.166-1.2.368-1.2.484-.528.626-1.172.536-1.404.876-1.686.734-.817.875-1.186c.378-.996 5.98-6.756 6.571-6.756.279 0 .767-.36 1.084-.8s.897-.8 1.288-.8.712-.18.712-.4.36-.4.8-.4.8-.18.8-.4.54-.4 1.2-.4 1.2-.18 1.2-.4.619-.4 1.376-.4 1.488-.18 1.624-.4 1.93-.4 4-.4 3.864.179 4 .4" fill="#24243c"/></svg>